<svg width="1919" height="940" viewBox="0 0 1919 940" fill="none" xmlns="http://www.w3.org/2000/svg">
<path d="M708.514 606.754C631.902 346.355 850.465 287.326 969.323 290.362C1191.83 302.361 1098.94 425.524 1279.49 521.042C1460.05 616.559 1275.56 643.072 1240.56 761.673C1205.55 880.274 1461.04 836.536 1391.71 1052.78C1322.38 1269.03 926.708 1254.69 1084.49 981.682C1242.27 708.67 804.28 932.254 708.514 606.754Z" stroke="#F4F4F4" stroke-width="2"/>
<path d="M764.848 590.306C711.432 397.241 872.403 350.486 959.565 351.241C1122.67 357.361 1053.21 450.314 1184.64 519.199C1316.07 588.085 1180.45 610.179 1153.5 698.998C1126.55 787.818 1314.45 751.987 1261.27 914.003C1208.09 1076.02 917.98 1070.35 1036.65 864.916C1155.32 659.482 831.618 831.637 764.848 590.306Z" stroke="#F4F4F4" stroke-width="2"/>
<path d="M621.734 533.476C537.448 229.025 791.422 155.302 928.945 156.497C1186.29 166.156 1076.69 312.731 1284.07 421.365C1491.44 529.999 1277.46 564.833 1234.94 704.893C1192.43 844.953 1488.89 788.46 1404.99 1043.94C1321.1 1299.43 863.361 1290.48 1050.59 966.527C1237.81 642.579 727.092 914.04 621.734 533.476Z" stroke="#F4F4F4" stroke-width="2"/>
<path d="M563.929 510.715C467.157 161.701 758.684 77.2112 916.544 78.5927C1211.95 89.6867 1086.15 257.704 1324.2 382.253C1562.25 506.802 1316.63 546.717 1267.83 707.27C1219.04 867.823 1559.34 803.088 1463.05 1095.95C1366.77 1388.82 841.342 1378.52 1056.23 1007.18C1271.12 635.836 684.895 946.981 563.929 510.715Z" stroke="#F4F4F4" stroke-width="2"/>
<path d="M481.378 477.614C366.828 63.638 712.021 -36.6149 898.936 -34.9944C1248.71 -21.8692 1099.74 177.441 1381.59 325.149C1663.44 472.858 1372.61 520.232 1314.82 710.68C1257.03 901.128 1659.97 824.302 1545.93 1171.7C1431.9 1519.1 809.766 1506.94 1064.24 1066.44C1318.72 625.947 624.565 995.084 481.378 477.614Z" stroke="#F4F4F4" stroke-width="2"/>
<path d="M385.073 438.864C249.797 -51.2064 657.603 -169.938 878.415 -168.045C1291.62 -152.554 1115.61 83.4195 1448.56 258.246C1781.51 433.072 1437.93 489.195 1369.64 714.665C1301.35 940.135 1777.36 849.13 1642.61 1260.41C1507.85 1671.69 772.897 1657.39 1073.58 1135.87C1374.26 614.354 554.169 1051.45 385.073 438.864Z" stroke="#F4F4F4" stroke-width="2"/>
</svg>
