<svg xmlns="http://www.w3.org/2000/svg" viewBox="-5 -10 109.1891891891892 117.17999999999999" version="1.1" style="max-height: 500px" width="109.1891891891892" height="117.17999999999999">
 <path d="m84.375 12.5h-9.375v-3.125c0-1.7188-1.4062-3.125-3.125-3.125s-3.125 1.4062-3.125 3.125v3.125h-37.5v-3.125c0-1.7188-1.4062-3.125-3.125-3.125s-3.125 1.4062-3.125 3.125v3.125h-9.375c-5.1562 0-9.375 4.2188-9.375 9.375v62.5c0 5.1562 4.2188 9.375 9.375 9.375h68.75c5.1562 0 9.375-4.2188 9.375-9.375v-62.5c0-5.1562-4.2188-9.375-9.375-9.375zm-68.75 6.25h9.375v3.125c0 1.7188 1.4062 3.125 3.125 3.125s3.125-1.4062 3.125-3.125v-3.125h37.5v3.125c0 1.7188 1.4062 3.125 3.125 3.125s3.125-1.4062 3.125-3.125v-3.125h9.375c1.7188 0 3.125 1.4062 3.125 3.125v15.625h-75v-15.625c0-1.7188 1.4062-3.125 3.125-3.125zm68.75 68.75h-68.75c-1.7188 0-3.125-1.4062-3.125-3.125v-40.625h75v40.625c0 1.7188-1.4062 3.125-3.125 3.125z" fill="#eaa451"/>
 <path d="m31.25 53.125h-6.25c-1.7188 0-3.125 1.4062-3.125 3.125s1.4062 3.125 3.125 3.125h6.25c1.7188 0 3.125-1.4062 3.125-3.125s-1.4062-3.125-3.125-3.125z" fill="#eaa451"/>
 <path d="m53.125 53.125h-6.25c-1.7188 0-3.125 1.4062-3.125 3.125s1.4062 3.125 3.125 3.125h6.25c1.7188 0 3.125-1.4062 3.125-3.125s-1.4062-3.125-3.125-3.125z" fill="#eaa451"/>
 <path d="m75 53.125h-6.25c-1.7188 0-3.125 1.4062-3.125 3.125s1.4062 3.125 3.125 3.125h6.25c1.7188 0 3.125-1.4062 3.125-3.125s-1.4062-3.125-3.125-3.125z" fill="#eaa451"/>
 <path d="m31.25 71.875h-6.25c-1.7188 0-3.125 1.4062-3.125 3.125s1.4062 3.125 3.125 3.125h6.25c1.7188 0 3.125-1.4062 3.125-3.125s-1.4062-3.125-3.125-3.125z" fill="#eaa451"/>
 <path d="m53.125 71.875h-6.25c-1.7188 0-3.125 1.4062-3.125 3.125s1.4062 3.125 3.125 3.125h6.25c1.7188 0 3.125-1.4062 3.125-3.125s-1.4062-3.125-3.125-3.125z" fill="#eaa451"/>
 <path d="m75 71.875h-6.25c-1.7188 0-3.125 1.4062-3.125 3.125s1.4062 3.125 3.125 3.125h6.25c1.7188 0 3.125-1.4062 3.125-3.125s-1.4062-3.125-3.125-3.125z" fill="#eaa451"/>
<text fill="#eaa451" font-family="Arbeit Regular, Helvetica, Arial-Unicode, Arial, Sans-serif" font-weight="bold" font-size="5.0" y="117.5" x="0.0">Created by Idwar</text><text fill="#eaa451" font-family="Arbeit Regular, Helvetica, Arial-Unicode, Arial, Sans-serif" font-weight="bold" font-size="5.0" y="122.5" x="0.0">from Noun Project</text></svg>