<svg viewBox="-5 -10 123.24324324324324 116.64" version="1.1" xmlns="http://www.w3.org/2000/svg" style="max-height: 500px" width="123.24324324324324" height="116.64">
 <path d="m43.129 55.699c4.3086 0 6.4805 5.2383 3.4414 8.2891-3.0508 3.0508-8.2891 0.87891-8.2891-3.4297 0-2.6797 2.168-4.8594 4.8477-4.8594zm-22.09 30.109c-0.75 0-1.3594-0.60938-1.3594-1.3711 0-0.75 0.60937-1.3594 1.3594-1.3594h41.32c0.75 0 1.3594 0.60938 1.3594 1.3594s-0.60938 1.3711-1.3594 1.3711zm49.352 0c-0.75 0-1.3594-0.60938-1.3594-1.3711 0-0.75 0.60938-1.3594 1.3594-1.3594h8.5703c0.75 0 1.3711 0.60938 1.3711 1.3594s-0.60938 1.3711-1.3711 1.3711zm-44.73-78.078v66.168h62.199v-64.359c0-1-0.82031-1.8086-1.8086-1.8086zm-2.7305 66.168v-66.168h-2.9688c-4.3008 0-7.8203 3.5195-7.8203 7.8203v61.84c1.9414-2.1484 4.7383-3.4883 7.8203-3.4883zm-2.9688 21.102c-5.8008 0-10.551-4.7383-10.551-10.551v-68.898c0-5.8125 4.75-10.551 10.551-10.551h66.09c2.5 0 4.5391 2.0391 4.5391 4.5391v84.102c0 0.75-0.60938 1.3594-1.3711 1.3594zm-5.5195-5.0195c1.4219 1.4219 3.3789 2.3008 5.5195 2.3008h67.898v-15.652h-67.898c-4.3008 0-7.8203 3.5312-7.8203 7.8203 0 2.1523 0.87891 4.1016 2.3008 5.5312zm45.32-59.98c0-0.75 0.60938-1.3594 1.3594-1.3594s1.3594 0.60938 1.3594 1.3594v4.3984c0 0.75-0.60938 1.3711-1.3594 1.3711s-1.3594-0.60938-1.3594-1.3711zm-7.9219 0c0-0.75 0.60938-1.3594 1.3594-1.3594s1.3711 0.60938 1.3711 1.3594v4.3984c0 0.75-0.60937 1.3711-1.3711 1.3711-0.75 0-1.3594-0.60938-1.3594-1.3711zm-7.918 0c0-0.75 0.60938-1.3594 1.3594-1.3594s1.3594 0.60938 1.3594 1.3594v4.3984c0 0.75-0.60938 1.3711-1.3594 1.3711s-1.3594-0.60938-1.3594-1.3711zm26.289-7.2812-32.531 3.2109 2.1914 13.301h25.91zm-2.0508 18.16c-0.011718 0.050782-0.019531 0.089844-0.039062 0.14062l-1.4805 5.5391c-0.12891 0.62109-0.67969 1.0781-1.3398 1.0781l-26.641 0.003906c-1.6406 0-2.5195 2.0117-1.3203 3.1992 0.33984 0.33984 0.80859 0.55859 1.3203 0.55859h29.289c0.75 0 1.3594 0.60937 1.3594 1.3594s-0.60938 1.3594-1.3594 1.3594l-29.289 0.003906c-4.0586 0-6.1602-4.9414-3.25-7.8594 0.83984-0.82812 1.9883-1.3516 3.25-1.3516h25.602l0.78906-2.9609h-26.332c-0.64844 0-1.2305-0.46875-1.3398-1.1406l-2.6094-15.879c-0.12891-0.76953 0.42969-1.4883 1.2109-1.5703l34.988-3.4492 0.32812-1.2188c0.12891-0.48828 0.51953-0.85156 0.98047-0.96875l5.4688-1.4609c0.71875-0.19141 1.4688 0.23828 1.6719 0.96094 0.19141 0.73047-0.23828 1.4688-0.96875 1.6719l-4.7305 1.2695zm-7.9219 14.82c4.3086 0 6.4883 5.2383 3.4414 8.2891-3.0508 3.0508-8.2891 0.87891-8.2891-3.4297-0.011719-2.6797 2.168-4.8594 4.8477-4.8594zm1.5117 3.3516c-1.3398-1.3398-3.6289-0.39062-3.6289 1.5117 0 1.8906 2.3008 2.8398 3.6289 1.5 0.82812-0.83203 0.82812-2.1836 0-3.0117zm-17.109 0c-1.3398-1.3398-3.6289-0.39062-3.6289 1.5117 0 1.8906 2.3008 2.8398 3.6289 1.5 0.82812-0.83203 0.82812-2.1836 0-3.0117z"/>
<text fill="#000000" font-family="Arbeit Regular, Helvetica, Arial-Unicode, Arial, Sans-serif" font-weight="bold" font-size="5.0" y="117.5" x="0.0">Created by RAGIL HERU FITRIYAN</text><text fill="#000000" font-family="Arbeit Regular, Helvetica, Arial-Unicode, Arial, Sans-serif" font-weight="bold" font-size="5.0" y="122.5" x="0.0">from Noun Project</text></svg>