<svg xmlns="http://www.w3.org/2000/svg" viewBox="-5 -10 109.1891891891892 117.17999999999999" version="1.1" style="max-height: 500px" width="109.1891891891892" height="117.17999999999999">
 <path d="m96.875 82.812c0 0.86328-0.69922 1.5625-1.5625 1.5625h-20.602c0.17578-0.49219 0.28906-1.0117 0.28906-1.5625v-28.125c0-2.5859-2.1016-4.6875-4.6875-4.6875h-6.25v-25h18.75c0.86328 0 1.5625 0.69922 1.5625 1.5625v54.688h6.25v-6.5391c-1.8125-0.64844-3.125-2.3672-3.125-4.3984 0-0.15625 0.64453-15.625 4.6875-15.625s4.6875 15.469 4.6875 15.625c0 2.0352-1.3125 3.75-3.125 4.3984v6.5391h1.5625c0.86328 0 1.5625 0.69922 1.5625 1.5625zm-53.125-42.188v9.375h17.188v-32.812c0-0.86328-0.69922-1.5625-1.5625-1.5625h-31.25c-0.86328 0-1.5625 0.69922-1.5625 1.5625v18.75h12.5c2.5859 0 4.6875 2.1016 4.6875 4.6875zm-4.6875 9.375h1.5625v-9.375c0-0.86328-0.69922-1.5625-1.5625-1.5625h-21.875c-0.86328 0-1.5625 0.69922-1.5625 1.5625v40.625h-6.25v-6.5391c1.8125-0.64844 3.125-2.3633 3.125-4.3984 0-0.15625-0.64453-15.625-4.6875-15.625s-4.6875 15.469-4.6875 15.625c0 2.0352 1.3125 3.75 3.125 4.3984v6.5391h-1.5625c-0.86328 0-1.5625 0.69922-1.5625 1.5625s0.69922 1.5625 1.5625 1.5625h29.977c-0.17578-0.49219-0.28906-1.0117-0.28906-1.5625v-28.125c0-2.5859 2.1016-4.6875 4.6875-4.6875zm31.25 3.125h-31.25c-0.86328 0-1.5625 0.69922-1.5625 1.5625v28.125c0 0.86328 0.69922 1.5625 1.5625 1.5625h6.25v-9.375c0-0.86328 0.69922-1.5625 1.5625-1.5625h15.625c0.86328 0 1.5625 0.69922 1.5625 1.5625v9.375h6.25c0.86328 0 1.5625-0.69922 1.5625-1.5625v-28.125c0-0.86328-0.69922-1.5625-1.5625-1.5625zm-21.875 31.25h12.5v-7.8125h-12.5z" fill="#eaa451"/>
<text fill="#eaa451" font-family="Arbeit Regular, Helvetica, Arial-Unicode, Arial, Sans-serif" font-weight="bold" font-size="5.0" y="117.5" x="0.0">Created by wahya</text><text fill="#eaa451" font-family="Arbeit Regular, Helvetica, Arial-Unicode, Arial, Sans-serif" font-weight="bold" font-size="5.0" y="122.5" x="0.0">from Noun Project</text></svg>