<svg viewBox="-5 -10 109.1891891891892 117.17999999999999" version="1.1" xmlns="http://www.w3.org/2000/svg" style="max-height: 500px" width="109.1891891891892" height="117.17999999999999">
 <path fill-rule="evenodd" d="m31.996 16.969h-7.9336c-0.53906 0-0.97656-0.4375-0.97656-0.97656 0-0.53906 0.4375-0.97656 0.97656-0.97656h7.9336c0.53906 0 0.97656 0.4375 0.97656 0.97656 0 0.53906-0.4375 0.97656-0.97656 0.97656zm14.648 0h-7.9336c-0.53906 0-0.97656-0.4375-0.97656-0.97656 0-0.53906 0.4375-0.97656 0.97656-0.97656h7.9336c0.53906 0 0.97656 0.4375 0.97656 0.97656 0 0.53906-0.4375 0.97656-0.97656 0.97656zm14.652 0h-7.9375c-0.53906 0-0.97656-0.4375-0.97656-0.97656 0-0.53906 0.4375-0.97656 0.97656-0.97656h7.9375c0.53906 0 0.97656 0.4375 0.97656 0.97656 0 0.53906-0.4375 0.97656-0.97656 0.97656zm14.648 0h-7.9336c-0.53906 0-0.97656-0.4375-0.97656-0.97656 0-0.53906 0.4375-0.97656 0.97656-0.97656h7.9336c0.53906 0 0.97656 0.4375 0.97656 0.97656 0 0.53906-0.4375 0.97656-0.97656 0.97656zm12.758 75.742h-77.402c-3.3203 0-6.0273-2.7031-6.0273-6.0273v-65.637c0-3.3242 2.707-6.0273 6.0273-6.0273h6.043c0.54297 0 0.98047 0.4375 0.98047 0.97656 0 0.53906-0.4375 0.97656-0.98047 0.97656h-6.043c-2.2461 0-4.0742 1.8281-4.0742 4.0742v65.637c0 2.25 1.8281 4.0742 4.0742 4.0742h77.402c2.25 0 4.0742-1.8281 4.0742-4.0742v-65.637c0-2.25-1.8281-4.0742-4.0742-4.0742h-6.043c-0.53906 0-0.97656-0.4375-0.97656-0.97656 0-0.53906 0.4375-0.97656 0.97656-0.97656h6.043c3.3242 0 6.0273 2.7031 6.0273 6.0273v65.637c0 3.3242-2.7031 6.0273-6.0273 6.0273z"/>
 <path fill-rule="evenodd" d="m93.754 31.551h-87.504c-0.53906 0-0.97656-0.4375-0.97656-0.97656 0-0.53906 0.4375-0.97656 0.97656-0.97656h87.504c0.53906 0 0.97656 0.4375 0.97656 0.97656 0 0.53906-0.4375 0.97656-0.97656 0.97656z"/>
 <path fill-rule="evenodd" d="m79.301 9.2422c-1.3125 0-2.3789 1.0664-2.3789 2.3789v8.7344c0 1.3125 1.0664 2.3789 2.3789 2.3789s2.3789-1.0664 2.3789-2.3789v-8.7383c0-1.3125-1.0664-2.3789-2.3789-2.3789zm0 15.449c-2.3906 0-4.332-1.9453-4.332-4.332v-8.7383c0-2.3906 1.9414-4.332 4.332-4.332s4.332 1.9414 4.332 4.332v8.7344c0 2.3867-1.9414 4.332-4.332 4.332z"/>
 <path fill-rule="evenodd" d="m64.652 9.2422c-1.3125 0-2.3789 1.0664-2.3789 2.3789v8.7344c0 1.3125 1.0664 2.3789 2.3789 2.3789s2.3789-1.0664 2.3789-2.3789v-8.7383c0-1.3125-1.0664-2.3789-2.3789-2.3789zm0 15.449c-2.3906 0-4.332-1.9453-4.332-4.332v-8.7383c0-2.3906 1.9414-4.332 4.332-4.332 2.3867 0 4.332 1.9414 4.332 4.332v8.7344c0 2.3867-1.9453 4.332-4.332 4.332z"/>
 <path fill-rule="evenodd" d="m50 9.2422c-1.3125 0-2.3789 1.0664-2.3789 2.3789v8.7344c0 1.3125 1.0664 2.3789 2.3789 2.3789s2.3789-1.0664 2.3789-2.3789v-8.7383c0-1.3125-1.0664-2.3789-2.3789-2.3789zm0 15.449c-2.3867 0-4.332-1.9453-4.332-4.332v-8.7383c0-2.3906 1.9453-4.332 4.332-4.332 2.3906 0 4.332 1.9414 4.332 4.332v8.7344c0 2.3867-1.9414 4.332-4.332 4.332z"/>
 <path fill-rule="evenodd" d="m35.352 9.2422c-1.3125 0-2.3789 1.0664-2.3789 2.3789v8.7344c0 1.3125 1.0664 2.3789 2.3789 2.3789s2.3789-1.0664 2.3789-2.3789v-8.7383c0-1.3125-1.0664-2.3789-2.3789-2.3789zm0 15.449c-2.3906 0-4.332-1.9453-4.332-4.332v-8.7383c0-2.3906 1.9414-4.332 4.332-4.332 2.3867 0 4.332 1.9414 4.332 4.332v8.7344c0 2.3867-1.9453 4.332-4.332 4.332z"/>
 <path fill-rule="evenodd" d="m20.703 9.2422c-1.3125 0-2.3789 1.0664-2.3789 2.3789v8.7344c0 1.3125 1.0664 2.3789 2.3789 2.3789s2.3789-1.0664 2.3789-2.3789v-8.7383c0-1.3125-1.0664-2.3789-2.3789-2.3789zm0 15.449c-2.3906 0-4.332-1.9453-4.332-4.332v-8.7383c0-2.3906 1.9414-4.332 4.332-4.332 2.3867 0 4.332 1.9414 4.332 4.332v8.7344c0 2.3867-1.9453 4.332-4.332 4.332z"/>
 <path fill-rule="evenodd" d="m18.871 40.828c-1.3047 0-2.3672 1.0625-2.3672 2.3672v35.914c0 1.3047 1.0625 2.3672 2.3672 2.3672h62.262c1.3047 0 2.3672-1.0625 2.3672-2.3672v-35.914c0-1.3047-1.0625-2.3672-2.3672-2.3672zm62.262 42.605h-62.262c-2.3828 0-4.3203-1.9375-4.3203-4.3203v-35.914c0-2.3828 1.9375-4.3203 4.3203-4.3203h62.262c2.3828 0 4.3203 1.9375 4.3203 4.3203v35.914c0 2.3828-1.9375 4.3203-4.3203 4.3203z"/>
 <path fill-rule="evenodd" d="m32.766 83.434c-0.53906 0-0.97656-0.4375-0.97656-0.97656v-42.605c0-0.53906 0.4375-0.97656 0.97656-0.97656s0.97656 0.4375 0.97656 0.97656v42.605c0 0.53906-0.4375 0.97656-0.97656 0.97656z"/>
 <path fill-rule="evenodd" d="m50 83.434c-0.53906 0-0.97656-0.4375-0.97656-0.97656v-42.605c0-0.53906 0.4375-0.97656 0.97656-0.97656s0.97656 0.4375 0.97656 0.97656v42.605c0 0.53906-0.4375 0.97656-0.97656 0.97656z"/>
 <path fill-rule="evenodd" d="m67.238 83.434c-0.53906 0-0.97656-0.4375-0.97656-0.97656v-42.605c0-0.53906 0.4375-0.97656 0.97656-0.97656 0.53906 0 0.97656 0.4375 0.97656 0.97656v42.605c0 0.53906-0.4375 0.97656-0.97656 0.97656z"/>
 <path fill-rule="evenodd" d="m84.477 55.027h-68.949c-0.53906 0-0.97656-0.43359-0.97656-0.97656 0-0.53906 0.4375-0.97656 0.97656-0.97656h68.949c0.53906 0 0.97656 0.4375 0.97656 0.97656 0 0.54297-0.4375 0.97656-0.97656 0.97656z"/>
 <path fill-rule="evenodd" d="m84.477 69.23h-68.949c-0.53906 0-0.97656-0.4375-0.97656-0.97656 0-0.53906 0.4375-0.97656 0.97656-0.97656h68.949c0.53906 0 0.97656 0.4375 0.97656 0.97656 0 0.53906-0.4375 0.97656-0.97656 0.97656z"/>
 <path fill-rule="evenodd" d="m22.562 50.434c-0.26172 0-0.50781-0.10547-0.69141-0.28516l-1.8438-1.8438c-0.37891-0.37891-0.37891-1 0-1.3828 0.38281-0.37891 1-0.37891 1.3828 0l1.1562 1.1562 4.3203-4.3203c0.38281-0.37891 1-0.37891 1.3828 0 0.38281 0.38281 0.38281 1 0 1.3828l-5.0117 5.0117c-0.18359 0.18359-0.42969 0.28516-0.69141 0.28516z"/>
 <path fill-rule="evenodd" d="m39.801 50.434c-0.25 0-0.5-0.09375-0.69141-0.28516l-1.8438-1.8438c-0.38281-0.37891-0.38281-1 0-1.3828 0.37891-0.37891 1-0.37891 1.3789 0l1.1562 1.1562 4.3203-4.3203c0.37891-0.37891 1-0.37891 1.3828 0 0.37891 0.38281 0.37891 1 0 1.3828l-5.0117 5.0117c-0.19141 0.19141-0.44141 0.28516-0.69141 0.28516z"/>
 <path fill-rule="evenodd" d="m57.039 50.434c-0.25 0-0.5-0.09375-0.69141-0.28516l-1.8438-1.8438c-0.38281-0.37891-0.38281-1 0-1.3828 0.37891-0.37891 1-0.37891 1.3828 0l1.1562 1.1562 4.3203-4.3203c0.38281-0.37891 1-0.37891 1.3828 0 0.38281 0.38281 0.38281 1 0 1.3828l-5.0117 5.0117c-0.19141 0.19141-0.44141 0.28516-0.69141 0.28516z"/>
 <path fill-rule="evenodd" d="m74.273 50.434c-0.25 0-0.5-0.09375-0.69141-0.28516l-1.8477-1.8438c-0.37891-0.37891-0.37891-1 0-1.3828 0.38281-0.37891 1-0.37891 1.3828 0l1.1562 1.1562 4.3203-4.3203c0.37891-0.37891 1-0.37891 1.3828 0 0.37891 0.38281 0.37891 1 0 1.3828l-5.0117 5.0117c-0.1875 0.19141-0.44141 0.28516-0.69141 0.28516z"/>
 <path fill-rule="evenodd" d="m39.801 64.637c-0.25 0-0.5-0.09375-0.69141-0.28516l-1.8438-1.8477c-0.38281-0.37891-0.38281-1 0-1.3828 0.37891-0.37891 1-0.37891 1.3789 0l1.1562 1.1562 4.3203-4.3203c0.37891-0.37891 1-0.37891 1.3828 0 0.37891 0.38281 0.37891 1 0 1.3828l-5.0117 5.0117c-0.19141 0.1875-0.44141 0.28516-0.69141 0.28516z"/>
 <path fill-rule="evenodd" d="m57.039 64.637c-0.25 0-0.5-0.09375-0.69141-0.28516l-1.8438-1.8477c-0.38281-0.37891-0.38281-1 0-1.3828 0.37891-0.37891 1-0.37891 1.3828 0l1.1562 1.1562 4.3203-4.3203c0.38281-0.37891 1-0.37891 1.3828 0 0.38281 0.38281 0.38281 1 0 1.3828l-5.0117 5.0117c-0.19141 0.1875-0.44141 0.28516-0.69141 0.28516z"/>
 <path fill-rule="evenodd" d="m74.273 64.637c-0.25 0-0.5-0.09375-0.69141-0.28516l-1.8477-1.8477c-0.37891-0.37891-0.37891-1 0-1.3828 0.38281-0.37891 1-0.37891 1.3828 0l1.1562 1.1562 4.3203-4.3203c0.37891-0.37891 1-0.37891 1.3828 0 0.37891 0.38281 0.37891 1 0 1.3828l-5.0117 5.0117c-0.1875 0.1875-0.44141 0.28516-0.69141 0.28516z"/>
 <path fill-rule="evenodd" d="m22.562 64.637c-0.26172 0-0.50781-0.10547-0.69141-0.28516l-1.8438-1.8477c-0.37891-0.37891-0.37891-1 0-1.3828 0.38281-0.37891 1-0.37891 1.3828 0l1.1562 1.1562 4.3203-4.3203c0.38281-0.37891 1-0.37891 1.3828 0 0.38281 0.38281 0.38281 1 0 1.3828l-5.0117 5.0117c-0.18359 0.17969-0.42969 0.28516-0.69141 0.28516z"/>
 <path fill-rule="evenodd" d="m39.801 78.836c-0.25 0-0.5-0.09375-0.69141-0.28516l-1.8438-1.8438c-0.38281-0.38281-0.38281-1 0-1.3828 0.37891-0.37891 1-0.37891 1.3789 0l1.1562 1.1562 4.3203-4.3203c0.37891-0.38281 1-0.38281 1.3828 0 0.37891 0.37891 0.37891 1 0 1.3828l-5.0117 5.0117c-0.19141 0.19141-0.44141 0.28516-0.69141 0.28516z"/>
 <path fill-rule="evenodd" d="m57.039 78.836c-0.25 0-0.5-0.09375-0.69141-0.28516l-1.8438-1.8438c-0.38281-0.38281-0.38281-1 0-1.3828 0.37891-0.37891 1-0.37891 1.3828 0l1.1562 1.1562 4.3203-4.3203c0.38281-0.38281 1-0.38281 1.3828 0 0.38281 0.37891 0.38281 1 0 1.3828l-5.0117 5.0117c-0.19141 0.19141-0.44141 0.28516-0.69141 0.28516z"/>
 <path fill-rule="evenodd" d="m22.562 78.836c-0.26172 0-0.50781-0.10156-0.69141-0.28516l-1.8438-1.8438c-0.37891-0.38281-0.37891-1 0-1.3828 0.38281-0.37891 1-0.37891 1.3828 0l1.1562 1.1562 4.3203-4.3203c0.38281-0.38281 1-0.38281 1.3828 0 0.38281 0.37891 0.38281 1 0 1.3828l-5.0117 5.0117c-0.18359 0.18359-0.42969 0.28516-0.69141 0.28516z"/>
<text fill="#000000" font-family="Arbeit Regular, Helvetica, Arial-Unicode, Arial, Sans-serif" font-weight="bold" font-size="5.0" y="117.5" x="0.0">Created by Zoya Khan</text><text fill="#000000" font-family="Arbeit Regular, Helvetica, Arial-Unicode, Arial, Sans-serif" font-weight="bold" font-size="5.0" y="122.5" x="0.0">from Noun Project</text></svg>