<svg xmlns="http://www.w3.org/2000/svg" viewBox="-5 -10 109.1891891891892 117.17999999999999" version="1.1" style="max-height: 500px" width="109.1891891891892" height="117.17999999999999">
 <path d="m91.656 97.875-13.078-29.719c-0.25-0.54688-0.79688-0.90625-1.3906-0.90625h-9.8594l9.3594-11.688c8.2812-10.344 9.875-24.219 4.125-36.172-5.7344-11.953-17.547-19.391-30.812-19.391s-25.078 7.4375-30.812 19.391c-5.75 11.953-4.1562 25.828 4.125 36.172l9.3594 11.688h-9.8594c-0.59375 0-1.1406 0.35938-1.3906 0.90625l-13.078 29.719c-0.20312 0.46875-0.15625 1.0156 0.125 1.4375s0.75 0.6875 1.2656 0.6875h80.531c0.51562 0 0.98438-0.26562 1.2656-0.6875s0.32812-0.96875 0.125-1.4375zm-41.656-81c9.1094 0 16.516 7.4062 16.516 16.516s-7.4062 16.516-16.516 16.516-16.516-7.4062-16.516-16.516 7.4062-16.516 16.516-16.516zm-37.953 80.094 11.75-26.688h11.312l13.703 17.109c0.29688 0.35938 0.73438 0.5625 1.1875 0.5625s0.89062-0.20312 1.1875-0.5625l13.703-17.109h11.312l11.75 26.688z" fill="#eaa451"/>
<text fill="#eaa451" font-family="Arbeit Regular, Helvetica, Arial-Unicode, Arial, Sans-serif" font-weight="bold" font-size="5.0" y="117.5" x="0.0">Created by Haider Ali</text><text fill="#eaa451" font-family="Arbeit Regular, Helvetica, Arial-Unicode, Arial, Sans-serif" font-weight="bold" font-size="5.0" y="122.5" x="0.0">from Noun Project</text></svg>