<svg viewBox="-5 -10 123.24324324324324 116.64" version="1.1" xmlns="http://www.w3.org/2000/svg" style="max-height: 500px" width="123.24324324324324" height="116.64">
 <path d="m11.773 28.547-3.6016 1.8281 3.6016 2.6094v-4.4414zm21.758 1.6953c-1.2539 0-2.2695-1.0156-2.2695-2.2695s1.0156-2.2695 2.2695-2.2695h32.934c1.2539 0 2.2695 1.0156 2.2695 2.2695s-1.0156 2.2695-2.2695 2.2695zm4.3906 12.469c-1.2539 0-2.2695-1.0156-2.2695-2.2695s1.0156-2.2695 2.2695-2.2695h24.152c1.2539 0 2.2695 1.0156 2.2695 2.2695s-1.0156 2.2695-2.2695 2.2695zm-21.609-6.4297 33.688 24.438 33.688-24.438v-19.637h-67.371v19.637zm71.914-3.293 3.6016-2.6094-3.6016-1.8281v4.4414zm0-9.5312 8.8672 4.5078c0.78516 0.35547 1.332 1.1484 1.332 2.0664v63.406c0 1.2539-1.0156 2.2695-2.2695 2.2695h-92.312c-1.2539 0-2.2695-1.0156-2.2695-2.2695v-63.406c0.003906-0.82422 0.45703-1.6211 1.2422-2.0234l8.957-4.5586v-9.0859c0-1.2539 1.0156-2.2695 2.2695-2.2695h20.055l14.871-7.5625c0.625-0.31641 1.3867-0.34375 2.0586 0l14.871 7.5625h20.055c1.2539 0 2.2695 1.0156 2.2695 2.2695v9.0859zm-75.41 15.887c-0.070312-0.046875-0.13672-0.09375-0.20312-0.14844l-6.5-4.7148v53.383l30.098-31.547-23.398-16.973zm31.289-27.242h11.789l-5.8945-2.9961zm43.281 27.094c-0.066407 0.054688-0.13281 0.10156-0.20312 0.14844l-23.398 16.973 30.098 31.547v-53.383l-6.5 4.7148zm3.3945 51.973-30.691-32.168-8.7617 6.3555c-0.82812 0.60156-1.9258 0.55859-2.6992-0.027344l-8.7227-6.3281-30.691 32.168z"/>
<text fill="#000000" font-family="Arbeit Regular, Helvetica, Arial-Unicode, Arial, Sans-serif" font-weight="bold" font-size="5.0" y="117.5" x="0.0">Created by SUBAIDA</text><text fill="#000000" font-family="Arbeit Regular, Helvetica, Arial-Unicode, Arial, Sans-serif" font-weight="bold" font-size="5.0" y="122.5" x="0.0">from Noun Project</text></svg>