<svg viewBox="-5 -0.28000000000000114 113.24324324324324 100.17" version="1.1" xmlns="http://www.w3.org/2000/svg" style="max-height: 500px" width="113.24324324324324" height="100.17">
 <path d="m80.938 19.062c-17.062-17.062-44.812-17.062-61.875 0s-17.062 44.812 0 61.875c8.5312 8.5312 19.719 12.781 30.938 12.781s22.406-4.25 30.938-12.781c17.062-17.062 17.062-44.812 0-61.875zm-4.4062 57.438c-14.625 14.625-38.406 14.625-53.031 0s-14.625-38.406-0.03125-53.031c7.3125-7.3125 16.906-10.969 26.531-10.969s19.219 3.6562 26.531 10.969c14.625 14.625 14.625 38.406 0 53.031zm-8.6875-39.938-13.406 13.406 13.406 13.406c1.2188 1.2188 1.2188 3.1875 0 4.4062-0.625 0.625-1.4062 0.90625-2.2188 0.90625s-1.5938-0.3125-2.2188-0.90625l-13.406-13.406-13.406 13.406c-0.625 0.625-1.4062 0.90625-2.2188 0.90625s-1.5938-0.3125-2.2188-0.90625c-1.2188-1.2188-1.2188-3.1875 0-4.4062l13.406-13.406-13.406-13.406c-1.2188-1.2188-1.2188-3.1875 0-4.4062s3.1875-1.2188 4.4062 0l13.406 13.406 13.406-13.406c1.2188-1.2188 3.1875-1.2188 4.4062 0s1.2188 3.1875 0 4.4062z"/>
<text fill="#000000" font-family="Arbeit Regular, Helvetica, Arial-Unicode, Arial, Sans-serif" font-weight="bold" font-size="5.0" y="117.5" x="0.0">Created by Cutie Katze</text><text fill="#000000" font-family="Arbeit Regular, Helvetica, Arial-Unicode, Arial, Sans-serif" font-weight="bold" font-size="5.0" y="122.5" x="0.0">from Noun Project</text></svg>