<svg viewBox="-5 -10 108.64864864864865 111.78" version="1.1" xmlns="http://www.w3.org/2000/svg" style="max-height: 500px" width="108.64864864864865" height="111.78">
 <path fill="#eaa451" d="m74.16 20.352c-8.0625-2.3984-16.191-3.6133-24.16-3.6133s-16.141 1.2266-24.254 3.6484c-2.2812 0.67969-3.8711 2.8242-3.8711 5.2109v13.367c0 16 8 30.77 21.406 39.512l3.7578 2.4492c1.8008 1.1758 4.125 1.1758 5.9258 0l3.7539-2.4492c13.406-8.7422 21.406-23.516 21.406-39.516l-0.089844-13.434c-0.015625-2.375-1.6094-4.5039-3.875-5.1797zm-10.902 23.723-11.047 11.047c-2.4414 2.4414-6.3984 2.4414-8.8398 0l-6.6289-6.6289c-1.832-1.832-1.832-4.7969 0-6.6289 1.832-1.832 4.7969-1.832 6.6289 0l4.418 4.418 8.8398-8.8398c1.832-1.832 4.7969-1.832 6.6289 0 1.832 1.832 1.832 4.7969 0 6.6289z"/>
 <path fill="#eaa451" d="m80.133 13.211c-19.996-7.1484-40.273-7.1484-60.27 0-4.4062 1.5742-7.3672 5.7305-7.3672 10.344v16.496c0 18.5 9.25 35.578 24.75 45.688l7.6289 4.9766c1.5547 1.0156 3.3359 1.5234 5.1211 1.5234 1.7812 0 3.5664-0.50781 5.1211-1.5234l7.6289-4.9766c15.5-10.109 24.75-27.188 24.75-45.688v-16.496c0-4.6094-2.9609-8.7656-7.3672-10.344zm-21.707 67.883-3.7539 2.4531c-1.418 0.92578-3.0469 1.3867-4.6719 1.3867s-3.25-0.46094-4.668-1.3867l-3.7578-2.4492c-14.289-9.3203-22.824-25.07-22.824-42.129v-13.367c0-3.7578 2.5078-7.1328 6.1016-8.207 8.4023-2.5078 16.863-3.7812 25.148-3.7812s16.695 1.2578 25.051 3.7422c3.5703 1.0664 6.0859 4.418 6.1094 8.1523l0.089844 13.445c0 17.07-8.5312 32.82-22.824 42.141z"/>
<text fill="#eaa451" font-family="Arbeit Regular, Helvetica, Arial-Unicode, Arial, Sans-serif" font-weight="bold" font-size="5.0" y="117.5" x="0.0">Created by Sita Raisita</text><text fill="#eaa451" font-family="Arbeit Regular, Helvetica, Arial-Unicode, Arial, Sans-serif" font-weight="bold" font-size="5.0" y="122.5" x="0.0">from Noun Project</text></svg>