<svg xml:space="preserve" style="max-height: 500px" viewBox="-5 -10 109.1891891891892 114.21" y="0px" x="0px" version="1.1" xmlns:xlink="http://www.w3.org/1999/xlink" xmlns="http://www.w3.org/2000/svg" width="109.1891891891892" height="114.21"><path d="M60.104,76.008c0.145,0.94-0.499,1.82-1.44,1.965c-2.837,0.438-5.753,0.66-8.667,0.66c-10.008,0-19.846-2.644-28.45-7.646  C13.199,66.135,6.178,59.182,1.242,50.88c-0.323-0.543-0.323-1.218,0-1.761c6.502-10.933,16.599-19.458,28.431-24.004  c0.888-0.342,1.885,0.102,2.226,0.99c0.341,0.888-0.102,1.885-0.99,2.226C20.115,32.478,10.858,40.152,4.739,50  c6.393,10.288,16.097,17.98,27.238,22.014C25.754,66.757,21.786,58.84,21.786,50c0-6.114,1.87-11.946,5.408-16.865  c0.556-0.773,1.632-0.948,2.404-0.393c0.772,0.556,0.948,1.632,0.393,2.404c-3.114,4.33-4.76,9.466-4.76,14.854  c0,13.889,11.11,25.189,24.766,25.189c2.739,0,5.478-0.209,8.142-0.62C59.08,74.422,59.959,75.068,60.104,76.008z M98.758,50.881  c-3.691,6.205-8.47,11.59-14.203,16.005c-5.306,4.085-11.198,7.155-17.537,9.147l7.879,13.646c0.476,0.824,0.193,1.877-0.631,2.353  c-0.271,0.157-0.567,0.231-0.86,0.231c-0.595,0-1.174-0.309-1.494-0.862L54.129,60.601c-1.282,0.501-2.674,0.779-4.131,0.779  c-6.275,0-11.38-5.105-11.38-11.38c0-3.586,1.668-6.787,4.268-8.874L25.099,10.32c-0.476-0.824-0.193-1.877,0.631-2.353  c0.824-0.476,1.878-0.193,2.353,0.63l8.32,14.411c4.421-1.09,8.989-1.642,13.595-1.642c10.011,0,19.85,2.644,28.455,7.646  c8.348,4.853,15.37,11.806,20.306,20.108C99.081,49.662,99.081,50.338,98.758,50.881z M52.378,57.569l-7.744-13.412  c-1.58,1.451-2.573,3.533-2.573,5.843c0,4.375,3.56,7.935,7.935,7.935C50.827,57.935,51.626,57.807,52.378,57.569z M57.932,50  c0-4.375-3.56-7.935-7.935-7.935c-0.829,0-1.629,0.128-2.381,0.366l7.744,13.412C56.94,54.391,57.932,52.31,57.932,50z   M57.11,58.874l6.879,11.914C70.752,66.076,74.763,58.373,74.763,50c0-13.889-11.11-25.189-24.766-25.189  c-3.839,0-7.629,0.909-11.035,2.631l6.903,11.957c1.282-0.501,2.674-0.78,4.131-0.78c6.275,0,11.38,5.105,11.38,11.381  C61.378,53.585,59.709,56.787,57.11,58.874z M95.261,50c-6.394-10.29-16.101-17.983-27.246-22.016  C74.24,33.241,78.209,41.159,78.209,50c0,8.651-3.776,16.676-10.249,22.087C79.285,68.041,88.857,60.319,95.261,50z"/><text fill="#000000" font-family="Arbeit Regular, Helvetica, Arial-Unicode, Arial, Sans-serif" font-weight="bold" font-size="5.0" y="117.5" x="0.0">Created by Purple Iconix</text><text fill="#000000" font-family="Arbeit Regular, Helvetica, Arial-Unicode, Arial, Sans-serif" font-weight="bold" font-size="5.0" y="122.5" x="0.0">from Noun Project</text></svg>