<svg xml:space="preserve" style="max-height: 500px" viewBox="-5 -10 109.1891891891892 114.21" y="0px" x="0px" version="1.1" xmlns:xlink="http://www.w3.org/1999/xlink" xmlns="http://www.w3.org/2000/svg" width="109.1891891891892" height="114.21"><path d="M98.758,49.12c-4.936-8.301-11.957-15.254-20.305-20.108c-8.604-5.002-18.442-7.646-28.45-7.646  c-10.011,0-19.85,2.644-28.455,7.646C13.2,33.865,6.178,40.818,1.242,49.12c-0.323,0.543-0.323,1.218,0,1.761  C6.178,59.182,13.2,66.135,21.548,70.988c8.605,5.002,18.444,7.646,28.455,7.646c10.008,0,19.847-2.644,28.45-7.646  c8.348-4.853,15.369-11.806,20.305-20.108C99.081,50.338,99.081,49.662,98.758,49.12z M25.237,50  c0-13.656,11.11-24.766,24.766-24.766c13.656,0,24.766,11.11,24.766,24.766c0,13.656-11.11,24.766-24.766,24.766  C36.347,74.766,25.237,63.656,25.237,50z M4.739,50c6.532-10.512,16.52-18.313,27.968-22.271C26.069,32.895,21.791,40.957,21.791,50  c0,9.043,4.278,17.105,10.915,22.272C21.259,68.313,11.271,60.512,4.739,50z M67.301,72.27C73.937,67.103,78.214,59.042,78.214,50  c0-9.042-4.277-17.103-10.913-22.27C78.745,31.689,88.73,39.49,95.261,50C88.73,60.51,78.745,68.311,67.301,72.27z M50.003,38.619  c-6.275,0-11.381,5.105-11.381,11.38c0,6.275,5.105,11.381,11.381,11.381S61.383,56.275,61.383,50  C61.383,43.725,56.278,38.619,50.003,38.619z M50.003,57.935c-4.375,0-7.935-3.56-7.935-7.935s3.56-7.935,7.935-7.935  s7.935,3.56,7.935,7.935S54.378,57.935,50.003,57.935z"/><text fill="#000000" font-family="Arbeit Regular, Helvetica, Arial-Unicode, Arial, Sans-serif" font-weight="bold" font-size="5.0" y="117.5" x="0.0">Created by Purple Iconix</text><text fill="#000000" font-family="Arbeit Regular, Helvetica, Arial-Unicode, Arial, Sans-serif" font-weight="bold" font-size="5.0" y="122.5" x="0.0">from Noun Project</text></svg>