<svg viewBox="-5 -0.28000000000000114 113.24324324324324 100.17" version="1.1" xmlns="http://www.w3.org/2000/svg" style="max-height: 500px" width="113.24324324324324" height="100.17">
 <path d="m48.238 80.121c0.46484 0.46875 1.1016 0.73438 1.7617 0.73047 0.66406 0 1.3008-0.26172 1.7695-0.73047l27.621-27.621c4.8008-4.9609 6.6289-12.09 4.8047-18.75-1.8242-6.6562-7.0273-11.859-13.688-13.684-6.6602-1.8242-13.785 0.003906-18.746 4.8047l-1.7617 1.7695-1.7695-1.7695c-4.9375-4.9336-12.129-6.8594-18.871-5.0547-6.7383 1.8086-12.004 7.0742-13.809 13.816-1.8047 6.7422 0.125 13.934 5.0586 18.867zm-24.09-51.711c2.7266-2.7266 6.4219-4.2617 10.277-4.2617s7.5508 1.5352 10.273 4.2617l3.5391 3.5898c0.46875 0.46484 1.1016 0.72656 1.7617 0.73047 0.66406 0 1.2969-0.26953 1.7617-0.74219l3.5312-3.5312-0.003907 0.003907c3.6719-3.6719 9.0195-5.1094 14.035-3.7695 5.0156 1.3438 8.9336 5.2578 10.281 10.27 1.3438 5.0156-0.085938 10.367-3.7539 14.039l-25.852 25.82-25.859-25.82c-2.7305-2.7305-4.2656-6.4336-4.2656-10.297 0.003906-3.8633 1.5391-7.5664 4.2734-10.293z"/>
<text fill="#000000" font-family="Arbeit Regular, Helvetica, Arial-Unicode, Arial, Sans-serif" font-weight="bold" font-size="5.0" y="117.5" x="0.0">Created by Rumana Islam</text><text fill="#000000" font-family="Arbeit Regular, Helvetica, Arial-Unicode, Arial, Sans-serif" font-weight="bold" font-size="5.0" y="122.5" x="0.0">from Noun Project</text></svg>