<svg y="0px" x="0px" viewBox="0 0 105.06912442396312 99.61637040000001" xmlns="http://www.w3.org/2000/svg" style="max-height: 500px" width="105.06912442396312" height="99.61637040000001"><path fill="#eaa451" d="M65.75344,36.14608c1.2345,.0733,2.14115,.17119,3.04805,.17392,6.53208,.0198,13.06466,.06423,19.59627,.00885,3.41391-.0289,6.37824,.6633,7.81032,4.17875,1.38132,3.39083,.04288,5.99154-2.56913,8.16566-.10746,.08942-.10881,.30638-.15717,.46466,8.74842,4.51353,8.30671,11.61716,.96748,16.1828,.94613,1.17811,2.0966,2.23857,2.78742,3.54256,1.86843,3.52688,.72466,7.25013-3.02173,9.78604-1.34303,.90904-1.78675,1.62328-1.25705,3.31224,1.1012,3.51107-1.57489,7.2104-5.65852,8.07996-1.24653,.26545-2.56022,.29568-3.84331,.29722-15.6428,.01889-31.28557,.02166-46.92837,.00872q-8.82446-.0073-8.81299-8.76504c.00627-11.34532,.03281-22.69086-.03268-34.0358-.01048-1.81632,.55927-2.48236,2.32682-3.24562,2.41895-1.04452,5.2375-2.59171,6.442-4.73446,2.8417-5.05527,6.66674-9.14277,10.70447-13.10751,5.70597-5.60289,10.47381-11.79889,13.32394-19.36703,.62829-1.66828,1.53405-3.28822,2.5873-4.7292,2.56734-3.51265,7.2638-3.01761,9.2161,.879,2.59237,5.17406,2.33233,10.61615,.65256,15.83017-1.64882,5.11795-4.10202,9.97694-6.20753,14.94732-.25409,.5997-.54164,1.18517-.97425,2.12679Z"/><path fill="#eaa451" d="M23.94171,67.26377c.00025,7.46798-.05135,14.93655,.03599,22.40352,.02226,1.90095-.60307,2.59174-2.50289,2.56957-6.35123-.07427-12.70416-.07075-19.05564-.01297C.65474,92.23992-.00563,91.59548,.00004,89.8148c.04761-15.02166,.05585-30.04353,.01272-45.06516-.00516-1.7984,.64589-2.40645,2.40994-2.38859,6.35139,.06432,12.70479,.08111,19.05539-.01565,1.91802-.02922,2.52401,.60033,2.50059,2.51498-.09131,7.46684-.03725,14.93545-.03696,22.4034Z"/><text font-family="'Helvetica Neue', Helvetica, Arial-Unicode, Arial, Sans-serif" font-weight="bold" font-size="5px" fill="#eaa451" y="107.23738" x="0">Created by Mattia</text><text font-family="'Helvetica Neue', Helvetica, Arial-Unicode, Arial, Sans-serif" font-weight="bold" font-size="5px" fill="#eaa451" y="112.23738" x="0">from the Noun Project</text></svg>