<svg xml:space="preserve" style="max-height: 500px" viewBox="-5 -10 109.1891891891892 114.21" y="0px" x="0px" version="1.1" xmlns:xlink="http://www.w3.org/1999/xlink" xmlns="http://www.w3.org/2000/svg" width="109.1891891891892" height="114.21"><path d="M91.616,30.357L61.872,1.487C61.551,1.175,61.12,1,60.672,1H9.584C8.632,1,7.861,1.771,7.861,2.723v84.067  C7.861,93.522,13.339,99,20.071,99h59.868c6.727,0,12.2-5.473,12.2-12.2V31.593C92.139,31.127,91.951,30.681,91.616,30.357z   M62.395,6.795L86.168,29.87H68.855c-3.562,0-6.459-2.898-6.459-6.459V6.795z M79.939,95.555H20.071  c-4.833,0-8.765-3.932-8.765-8.765V4.445H58.95v18.966c0,5.462,4.443,9.905,9.905,9.905h19.839V86.8  C88.694,91.627,84.767,95.555,79.939,95.555z M67.995,48.088c0,0.951-0.771,1.723-1.723,1.723H33.728  c-0.951,0-1.723-0.771-1.723-1.723c0-0.951,0.771-1.723,1.723-1.723h32.544C67.223,46.365,67.995,47.136,67.995,48.088z   M67.995,60.431c0,0.951-0.771,1.723-1.723,1.723H33.728c-0.951,0-1.723-0.771-1.723-1.723s0.771-1.723,1.723-1.723h32.544  C67.223,58.708,67.995,59.48,67.995,60.431z M51.723,72.78c0,0.951-0.771,1.723-1.723,1.723H33.728  c-0.951,0-1.723-0.771-1.723-1.723c0-0.951,0.771-1.723,1.723-1.723H50C50.951,71.057,51.723,71.829,51.723,72.78z"/><text fill="#000000" font-family="Arbeit Regular, Helvetica, Arial-Unicode, Arial, Sans-serif" font-weight="bold" font-size="5.0" y="117.5" x="0.0">Created by Purple Iconix</text><text fill="#000000" font-family="Arbeit Regular, Helvetica, Arial-Unicode, Arial, Sans-serif" font-weight="bold" font-size="5.0" y="122.5" x="0.0">from Noun Project</text></svg>