<svg viewBox="-5 -10 109.1891891891892 117.17999999999999" version="1.1" xmlns="http://www.w3.org/2000/svg" style="max-height: 500px" width="109.1891891891892" height="117.17999999999999">
 <path d="m10.316 52.27h6.6328c0.82812 0 1.5-0.67188 1.5-1.5v-38.633c0-0.82812-0.67188-1.5-1.5-1.5h-6.6328c-0.82812 0-1.5 0.67188-1.5 1.5v38.637c0 0.82812 0.67188 1.4961 1.5 1.4961zm1.5-38.633h3.6328v16.332h-3.6328zm0 19.332h3.6328v16.305h-3.6328zm64.066 12.758c0 2.7266-2.207 5.0156-5.1602 5.6055v1.4805c0 0.82812-0.67188 1.5-1.5 1.5s-1.5-0.67188-1.5-1.5v-1.4766c-1.9375-0.375-3.5859-1.4766-4.4805-3.0547-0.41016-0.71875-0.15625-1.6367 0.5625-2.0469 0.71484-0.41016 1.6328-0.16016 2.0469 0.5625 0.57813 1.0195 1.9023 1.6797 3.375 1.6797 2.0195 0 3.6602-1.2344 3.6602-2.7539 0-1.5195-1.6406-2.7539-3.6602-2.7539-3.6719 0-6.6602-2.5781-6.6602-5.7539 0-2.7266 2.207-5.0156 5.1602-5.6055v-1.4531c0-0.82812 0.67188-1.5 1.5-1.5 0.82813 0 1.5 0.67188 1.5 1.5v1.4492c1.9375 0.375 3.582 1.4766 4.4805 3.0547 0.41016 0.71875 0.15625 1.6367-0.5625 2.0469-0.72266 0.41016-1.6367 0.15625-2.0469-0.5625-0.57812-1.0195-1.9023-1.6797-3.3711-1.6797-1.9844 0-3.6602 1.2617-3.6602 2.7539s1.6758 2.7539 3.6602 2.7539c3.668 0 6.6562 2.582 6.6562 5.7539zm-6.6602-25.285c-11.598 0-21.031 9.4336-21.031 21.031s9.4336 21.031 21.031 21.031 21.031-9.4336 21.031-21.031c0-11.594-9.4375-21.031-21.031-21.031zm0 39.062c-9.9414 0-18.031-8.0898-18.031-18.031s8.0898-18.031 18.031-18.031 18.031 8.0898 18.031 18.031c0 9.9453-8.0898 18.031-18.031 18.031zm0-47.793c-1.7891 0-3.5391 0.16406-5.2461 0.46484v-7.2109c0-2.1875-1.7773-3.9648-3.9648-3.9648l-15.594-0.003906h-39.457c-2.1875 0-3.9648 1.7773-3.9648 3.9648v90.086c0 2.1719 1.7773 3.9375 3.9648 3.9375h39.457l15.594 0.003906c2.1875 0 3.9648-1.7656 3.9648-3.9375v-24.281c1.707 0.30078 3.457 0.46484 5.2461 0.46484 16.41 0 29.762-13.352 29.762-29.762s-13.352-29.762-29.762-29.762zm-23.305-7.7148h14.094c0.53125 0 0.96484 0.43359 0.96484 0.96484v7.8984c-6.0078 1.7188-11.25 5.2773-15.059 10.062zm-14.934 91.992h-26.023c-0.52344 0-0.96484-0.42969-0.96484-0.9375v-90.086c0-0.53125 0.43359-0.96484 0.96484-0.96484h26.023zm29.992-0.9375c0 0.50781-0.44141 0.9375-0.96484 0.9375h-14.094v-35.965c3.8047 4.7852 9.0469 8.3438 15.059 10.062zm8.2461-26.816c-10.031 0-18.832-5.4883-23.41-13.758-0.046875-0.11719-0.10547-0.22656-0.17969-0.32812-1.5859-2.9609-2.6367-6.2656-3.0117-9.8008-0.085938-0.82422-0.81641-1.4219-1.6484-1.3359-0.82422 0.085937-1.4219 0.82422-1.332 1.6484 0.41016 3.8789 1.5547 7.5117 3.2773 10.773v40.547h-8.9336v-91.984h8.9336v23.512c-1.7266 3.2617-2.8672 6.8945-3.2773 10.773-0.089844 0.82422 0.51172 1.5625 1.332 1.6484 0.83594 0.089843 1.5625-0.51172 1.6484-1.3359 0.375-3.5312 1.4258-6.8398 3.0117-9.8008 0.074219-0.10156 0.13281-0.21094 0.17969-0.32812 4.5781-8.2695 13.379-13.758 23.41-13.758 14.758 0 26.762 12.004 26.762 26.762 0 14.762-12.004 26.766-26.762 26.766z"/>
<text fill="#000000" font-family="Arbeit Regular, Helvetica, Arial-Unicode, Arial, Sans-serif" font-weight="bold" font-size="5.0" y="117.5" x="0.0">Created by nuha</text><text fill="#000000" font-family="Arbeit Regular, Helvetica, Arial-Unicode, Arial, Sans-serif" font-weight="bold" font-size="5.0" y="122.5" x="0.0">from Noun Project</text></svg>