<svg xml:space="preserve" style="max-height: 500px" viewBox="-5 -10 109.1891891891892 114.21" y="0px" x="0px" version="1.1" xmlns:xlink="http://www.w3.org/1999/xlink" xmlns="http://www.w3.org/2000/svg" width="109.1891891891892" height="114.21"><path d="M93.336,6.833c-0.026-0.03-0.054-0.06-0.082-0.088c-7.665-7.66-20.133-7.659-27.793,0L7.304,64.903  c-0.246,0.246-0.412,0.561-0.475,0.903L1.029,96.962c-0.104,0.558,0.074,1.132,0.475,1.533c0.326,0.326,0.765,0.504,1.218,0.504  c0.105,0,0.21-0.01,0.315-0.029l31.156-5.799c0.342-0.064,0.657-0.229,0.903-0.475l58.157-58.157  C100.888,26.904,100.915,14.501,93.336,6.833z M78.728,44.192L55.807,21.271l3.974-3.974l22.924,22.918L78.728,44.192z   M33.879,89.042L23.637,78.798L66.05,36.386l10.243,10.243L33.879,89.042z M10.96,66.118l42.411-42.411L63.614,33.95L21.202,76.362  L10.96,66.118z M9.617,69.647l10.338,10.341c0.009,0.01,0.017,0.02,0.027,0.029c0.009,0.009,0.02,0.017,0.029,0.026l10.337,10.339  L4.875,95.124L9.617,69.647z M90.818,32.102L85.14,37.78L62.217,14.861l5.68-5.68c6.292-6.292,16.518-6.316,22.846-0.074  c0.024,0.027,0.049,0.054,0.075,0.079C97.136,15.505,97.136,25.785,90.818,32.102z"/><text fill="#000000" font-family="Arbeit Regular, Helvetica, Arial-Unicode, Arial, Sans-serif" font-weight="bold" font-size="5.0" y="117.5" x="0.0">Created by Purple Iconix</text><text fill="#000000" font-family="Arbeit Regular, Helvetica, Arial-Unicode, Arial, Sans-serif" font-weight="bold" font-size="5.0" y="122.5" x="0.0">from Noun Project</text></svg>