<svg xmlns="http://www.w3.org/2000/svg" viewBox="-5 -10 109.1891891891892 117.17999999999999" version="1.1" style="max-height: 500px" width="109.1891891891892" height="117.17999999999999">
 <path d="m90.625 15.625h-81.25c-1.7188 0-3.125 1.4062-3.125 3.125v62.5c0 1.7188 1.4062 3.125 3.125 3.125h81.25c1.7188 0 3.125-1.4062 3.125-3.125v-62.5c0-1.7188-1.4062-3.125-3.125-3.125zm-3.125 62.5h-75v-56.25h75z" fill="#eaa451"/>
 <path d="m31.25 50c5.1562 0 9.375-4.2188 9.375-9.375s-4.2188-9.375-9.375-9.375-9.375 4.2188-9.375 9.375 4.2188 9.375 9.375 9.375zm0-12.5c1.7188 0 3.125 1.4062 3.125 3.125s-1.4062 3.125-3.125 3.125-3.125-1.4062-3.125-3.125 1.4062-3.125 3.125-3.125z" fill="#eaa451"/>
 <path d="m21.875 68.75c1.7188 0 3.125-1.4062 3.125-3.125v-3.125c0-1.7188 1.4062-3.125 3.125-3.125h6.25c1.7188 0 3.125 1.4062 3.125 3.125v3.125c0 1.7188 1.4062 3.125 3.125 3.125s3.125-1.4062 3.125-3.125v-3.125c0-5.1562-4.2188-9.375-9.375-9.375h-6.25c-5.1562 0-9.375 4.2188-9.375 9.375v3.125c0 1.7188 1.4062 3.125 3.125 3.125z" fill="#eaa451"/>
 <path d="m53.125 37.5h25c1.7188 0 3.125-1.4062 3.125-3.125s-1.4062-3.125-3.125-3.125h-25c-1.7188 0-3.125 1.4062-3.125 3.125s1.4062 3.125 3.125 3.125z" fill="#eaa451"/>
 <path d="m53.125 53.125h25c1.7188 0 3.125-1.4062 3.125-3.125s-1.4062-3.125-3.125-3.125h-25c-1.7188 0-3.125 1.4062-3.125 3.125s1.4062 3.125 3.125 3.125z" fill="#eaa451"/>
 <path d="m53.125 68.75h12.5c1.7188 0 3.125-1.4062 3.125-3.125s-1.4062-3.125-3.125-3.125h-12.5c-1.7188 0-3.125 1.4062-3.125 3.125s1.4062 3.125 3.125 3.125z" fill="#eaa451"/>
<text fill="#eaa451" font-family="Arbeit Regular, Helvetica, Arial-Unicode, Arial, Sans-serif" font-weight="bold" font-size="5.0" y="117.5" x="0.0">Created by Idwar</text><text fill="#eaa451" font-family="Arbeit Regular, Helvetica, Arial-Unicode, Arial, Sans-serif" font-weight="bold" font-size="5.0" y="122.5" x="0.0">from Noun Project</text></svg>