<svg xmlns="http://www.w3.org/2000/svg" viewBox="-5 -10 109.1891891891892 117.17999999999999" version="1.1" style="max-height: 500px" width="109.1891891891892" height="117.17999999999999">
 <path d="m30.832 59.543c-4.2695-0.011719-8.3672 1.6758-11.395 4.6914-3.0234 3.0117-4.7266 7.1055-4.7305 11.375-0.003906 4.2734 1.6914 8.3672 4.7109 11.387 3.0195 3.0195 7.1172 4.7148 11.387 4.7109 4.2695-0.003906 8.3633-1.7031 11.379-4.7305 3.0156-3.0234 4.7031-7.1211 4.6914-11.395-0.011719-4.25-1.7031-8.3242-4.7109-11.328-3.0039-3.0078-7.0781-4.7031-11.332-4.7109zm3 24.082c0 1.6641-1.3359 3.0195-3 3.043-1.6797 0-3.0391-1.3633-3.0391-3.043v-7.207c0-1.6797 1.3594-3.043 3.0391-3.043 1.6641 0.023438 3 1.3789 3 3.043zm-0.875-13.918c-0.29297 0.24609-0.61328 0.45703-0.95703 0.625-0.36719 0.16406-0.76562 0.25-1.168 0.25-0.40234 0.007813-0.80078-0.078125-1.1641-0.25-0.35547-0.14844-0.67969-0.35938-0.96094-0.625-0.57422-0.55469-0.90625-1.3203-0.91406-2.125-0.007813-0.40234 0.078125-0.80078 0.25-1.1641 0.13281-0.375 0.35938-0.70703 0.66406-0.96094 0.26562-0.28906 0.59375-0.51953 0.96094-0.66406 0.74219-0.33594 1.5898-0.33594 2.332 0 0.35156 0.16797 0.67578 0.39453 0.95703 0.66406 0.5625 0.56641 0.87891 1.3281 0.875 2.125-0.011719 0.79688-0.32422 1.5547-0.875 2.125zm41.25-61.375h-27.332c-0.79297 0.011719-1.5547 0.32422-2.125 0.875l-16.043 16.086c-0.58594 0.55078-0.91406 1.3203-0.91406 2.125v20.082c0.023437 1.6641 1.375 3 3.0391 3 5.9648 0.011719 11.73 2.1523 16.25 6.043h22.293c1.6562 0 3 1.3438 3 3s-1.3438 3-3 3h-17.168c2.4141 3.9219 3.6992 8.4336 3.7109 13.039 0 1.6641 1.3359 3.0195 3 3.043h15.293-0.003907c2.9297 0 5.7383-1.1641 7.8086-3.2344s3.2344-4.8789 3.2344-7.8086v-48.207c0-2.9297-1.1641-5.7383-3.2344-7.8086-2.0703-2.0703-4.8789-3.2344-7.8086-3.2344zm-43.375 19.086 16.043-16.082v12.039c0 1.1055-0.4375 2.1641-1.2188 2.9453s-1.8438 1.2227-2.9492 1.2227zm38.543 19.082h-25.707c-1.6641-0.023438-3-1.3789-3-3.043 0-1.6562 1.3438-3 3-3h25.707c1.6562 0 3 1.3438 3 3 0 1.6641-1.3359 3.0195-3 3.043zm0-16.082h-8.582c-1.6562 0-3-1.3438-3-3s1.3438-3 3-3h8.582c1.6562 0 3 1.3438 3 3s-1.3438 3-3 3z" fill="#eaa451"/>
<text fill="#eaa451" font-family="Arbeit Regular, Helvetica, Arial-Unicode, Arial, Sans-serif" font-weight="bold" font-size="5.0" y="117.5" x="0.0">Created by Rchicons</text><text fill="#eaa451" font-family="Arbeit Regular, Helvetica, Arial-Unicode, Arial, Sans-serif" font-weight="bold" font-size="5.0" y="122.5" x="0.0">from Noun Project</text></svg>