<svg xmlns:xlink="http://www.w3.org/1999/xlink" xmlns="http://www.w3.org/2000/svg" xml:space="preserve" style="max-height: 500px" viewBox="0 0 96 107.5" y="0px" x="0px" version="1.1" width="96" height="107.5"><g><g><path d="M28,88.3c-0.9,0-1.8-0.3-2.6-0.9c-1.6-1.2-2.2-3.1-1.6-5l6.9-21.2c0.3-0.9,0-2-0.8-2.5l-18-13.1c-1.6-1.2-2.2-3.1-1.6-5    c0.6-1.9,2.3-3.1,4.2-3.1h22.3c1,0,1.9-0.6,2.2-1.6l6.9-21.2c0.6-1.9,2.3-3.1,4.2-3.1s3.6,1.2,4.2,3.1L61.1,36    c0.3,0.9,1.2,1.6,2.2,1.6h22.3c2,0,3.6,1.2,4.2,3.1c0.6,1.9,0,3.8-1.6,5l-18,13.1c-0.8,0.6-1.1,1.6-0.8,2.5l6.9,21.2    c0.6,1.9,0,3.8-1.6,5c-1.6,1.2-3.6,1.2-5.2,0l-18-13.1c-0.8-0.6-1.9-0.6-2.7,0l-18,13.1C29.8,88,28.9,88.3,28,88.3z" fill="#eaa451"/></g></g><text font-family="'Helvetica Neue', Helvetica, Arial-Unicode, Arial, Sans-serif" font-weight="bold" font-size="5px" fill="#eaa451" y="115" x="0">Created by Mu'as</text><text font-family="'Helvetica Neue', Helvetica, Arial-Unicode, Arial, Sans-serif" font-weight="bold" font-size="5px" fill="#eaa451" y="120" x="0">from the Noun Project</text></svg>