<svg viewBox="-5 -10 116.48648648648648 116.64" version="1.1" xmlns="http://www.w3.org/2000/svg" style="max-height: 500px" width="116.48648648648648" height="116.64">
 <path fill-rule="evenodd" d="m87.281 27.238-5.1328 59.711c-0.51563 5.9805-5.4961 10.551-11.48 10.551h-41.336c-5.9844 0-10.969-4.5703-11.48-10.551l-5.1328-59.711h-7.4258c-1.543 0-2.793-1.25-2.793-2.793 0-1.543 1.25-2.793 2.793-2.793h21.938l1.4062-9.3398c0.42578-2.8281 1.8359-5.2812 3.8672-7.0312 2.0273-1.7461 4.6641-2.7773 7.5273-2.7773h19.934c5.7344 0 10.543 4.1523 11.395 9.8125l1.4062 9.3398h21.938c1.543 0 2.7969 1.25 2.7969 2.793s-1.2539 2.793-2.7969 2.793h-7.4258zm-48.805 15.426v33.82c0 1.543 1.25 2.793 2.793 2.793s2.793-1.25 2.793-2.793v-33.82c0-1.543-1.25-2.7969-2.793-2.7969s-2.793 1.2539-2.793 2.7969zm17.457 0v33.82c0 1.543 1.25 2.793 2.793 2.793 1.543 0 2.793-1.25 2.793-2.793v-33.82c0-1.543-1.25-2.7969-2.793-2.7969-1.543 0-2.793 1.2539-2.793 2.7969zm-23.055-21.012h34.242l-1.2812-8.5117c-0.44141-2.9375-2.8945-5.0508-5.8711-5.0508h-19.934c-1.4844 0-2.8477 0.52344-3.8867 1.4219-1.0391 0.91016-1.7578 2.1367-1.9844 3.6328l-1.2812 8.5117zm-14.555 5.5859 5.0938 59.254c0.26562 3.0781 2.8086 5.418 5.9141 5.418h41.336c3.1094 0 5.6523-2.3398 5.9141-5.418l5.0938-59.254z"/>
<text fill="#000000" font-family="Arbeit Regular, Helvetica, Arial-Unicode, Arial, Sans-serif" font-weight="bold" font-size="5.0" y="117.5" x="0.0">Created by Asa Kharisma Dini</text><text fill="#000000" font-family="Arbeit Regular, Helvetica, Arial-Unicode, Arial, Sans-serif" font-weight="bold" font-size="5.0" y="122.5" x="0.0">from Noun Project</text></svg>